<svg width="455" height="528" viewBox="0 0 455 528" fill="none" xmlns="http://www.w3.org/2000/svg">
<path d="M231.655 0.726233C234.159 1.89567 234.159 1.89567 236.788 3.37467C237.752 3.91721 238.717 4.45974 239.711 5.01871C244.316 7.68994 248.87 10.4371 253.405 13.2262C255.437 14.4698 257.47 15.7133 259.502 16.9567C260.527 17.585 261.552 18.2132 262.608 18.8605C267.347 21.7628 272.095 24.6507 276.842 27.5387C277.781 28.11 278.719 28.6813 279.686 29.2699C288.418 34.5846 297.155 39.8905 305.893 45.1938C307.084 45.9168 308.276 46.6399 309.467 47.363C310.06 47.7226 310.652 48.0822 311.263 48.4527C315.436 50.9859 319.608 53.5216 323.78 56.0583C349.137 71.476 374.578 86.7482 400.2 101.723C406.365 105.328 412.524 108.943 418.68 112.564C420.026 113.356 421.373 114.148 422.72 114.939C426.909 117.399 431.093 119.867 435.269 122.347C436.6 123.136 437.932 123.921 439.266 124.704C441.121 125.793 442.971 126.893 444.819 127.996C445.875 128.621 446.932 129.246 448.02 129.89C451.165 132.082 453.343 133.981 454.037 137.863C454.04 138.638 454.043 139.414 454.046 140.213C454.057 141.111 454.068 142.01 454.079 142.936C454.074 144.412 454.074 144.412 454.069 145.917C454.078 146.965 454.086 148.013 454.094 149.092C454.118 152.615 454.12 156.138 454.122 159.661C454.134 162.182 454.148 164.703 454.163 167.225C454.198 174.082 454.213 180.94 454.222 187.797C454.228 192.079 454.239 196.362 454.251 200.644C454.283 212.502 454.309 224.36 454.316 236.218C454.316 236.977 454.316 237.736 454.317 238.517C454.318 240.056 454.318 241.594 454.319 243.132C454.32 243.895 454.32 244.659 454.32 245.446C454.321 246.21 454.321 246.975 454.322 247.762C454.329 260.151 454.374 272.539 454.434 284.927C454.496 297.647 454.528 310.368 454.529 323.089C454.531 330.23 454.545 337.372 454.592 344.513C454.636 351.23 454.639 357.945 454.614 364.662C454.612 367.128 454.623 369.594 454.649 372.06C454.682 375.426 454.666 378.789 454.637 382.155C454.658 383.131 454.679 384.108 454.701 385.115C454.623 389.117 454.495 391.696 451.912 394.863C449.901 396.652 447.882 398.22 445.655 399.726C444.684 400.384 443.713 401.042 442.712 401.72C441.801 402.245 440.89 402.771 439.952 403.312C438.904 403.924 437.856 404.535 436.777 405.165C435.108 406.123 435.108 406.123 433.405 407.101C430.974 408.515 428.547 409.936 426.12 411.355C425.5 411.716 424.88 412.078 424.241 412.45C418.343 415.892 412.508 419.432 406.68 422.992C396.053 429.484 385.372 435.883 374.655 442.226C364.618 448.167 354.613 454.155 344.655 460.226C332.5 467.635 320.272 474.915 308.026 482.17C307.372 482.557 306.719 482.944 306.045 483.343C305.402 483.724 304.759 484.105 304.097 484.498C298.689 487.703 293.293 490.927 287.905 494.164C287.123 494.634 286.34 495.103 285.535 495.587C281.635 497.931 277.738 500.279 273.842 502.629C264.499 508.258 255.125 513.832 245.717 519.351C244.692 519.956 243.667 520.56 242.611 521.183C241.647 521.746 240.683 522.31 239.69 522.89C238.838 523.39 237.986 523.89 237.108 524.404C232.13 527.087 228.365 528.42 222.655 527.726C219.076 526.22 215.799 524.275 212.467 522.289C211.475 521.713 210.482 521.136 209.46 520.543C199.632 514.802 189.915 508.871 180.205 502.935C173.722 498.972 167.207 495.072 160.655 491.226C152.955 486.705 145.313 482.095 137.693 477.443C127.94 471.489 118.137 465.65 108.217 459.976C99.5569 455.021 91.0106 449.927 82.551 444.637C75.8395 440.443 69.0722 436.35 62.2797 432.289C46.7865 423.018 31.3209 413.703 16.0297 404.101C14.8659 403.374 14.8659 403.374 13.6786 402.632C12.2672 401.74 10.8636 400.836 9.47015 399.917C7.92722 398.905 6.34518 397.953 4.75629 397.015C-0.437074 391.359 0.361502 381.521 0.380569 374.232C0.375333 373.224 0.370096 372.215 0.3647 371.177C0.34979 367.824 0.348998 364.472 0.348328 361.12C0.340701 358.706 0.332272 356.293 0.323105 353.879C0.301217 347.342 0.292346 340.805 0.287277 334.268C0.284011 330.183 0.277486 326.098 0.270279 322.013C0.250735 310.69 0.234312 299.367 0.2314 288.044C0.231212 287.321 0.231028 286.598 0.230835 285.854C0.230469 284.388 0.230098 282.923 0.229736 281.458C0.229554 280.73 0.229375 280.003 0.229187 279.254C0.229006 278.526 0.228824 277.797 0.228638 277.047C0.225091 265.232 0.198034 253.416 0.16069 241.601C0.122608 229.454 0.103238 217.307 0.102936 205.16C0.102352 198.346 0.0938835 191.533 0.0649414 184.719C0.0378668 178.316 0.0365219 171.913 0.052597 165.51C0.0544159 163.16 0.0476873 160.81 0.0317841 158.46C0.0113986 155.253 0.0218282 152.047 0.0399933 148.84C0.0267933 147.91 0.0136 146.98 0 146.022C0.0823589 139.657 1.44194 136.529 5.65472 131.726C8.34833 129.641 8.34833 129.641 11.2836 127.922C12.9394 126.935 12.9394 126.935 14.6286 125.929C15.8247 125.236 17.0209 124.544 18.2172 123.851C19.4619 123.116 20.7056 122.379 21.9484 121.64C24.5377 120.103 27.131 118.573 29.727 117.048C35.4111 113.699 41.0389 110.258 46.6706 106.822C55.2642 101.582 63.8804 96.381 72.518 91.2145C78.4751 87.6403 84.4058 84.0221 90.3422 80.4137C98.4332 75.4958 106.53 70.5878 114.655 65.7262C126.145 58.8491 137.583 51.8876 149.026 44.9318C154.322 41.7128 159.619 38.4971 164.917 35.2812C166.651 34.2283 168.386 33.1753 170.12 32.1222C175.509 28.8501 180.898 25.5785 186.288 22.3087C188.789 20.7917 191.29 19.2744 193.79 17.757C195.52 16.7074 197.251 15.6582 198.981 14.609C200.058 13.9555 201.135 13.3019 202.245 12.6286C203.295 11.9931 204.346 11.3576 205.428 10.7028C207.693 9.31536 209.94 7.91337 212.178 6.48405C212.759 6.11623 213.341 5.7484 213.94 5.36944C215.554 4.34648 217.162 3.31483 218.77 2.28263C223.244 -0.131114 226.749 -0.597163 231.655 0.726233Z" fill="#FCFCFC"/>
<path d="M211.654 41.7266C211.643 43.5203 211.643 43.5203 211.631 45.3503C211.45 73.7653 211.341 102.18 211.322 130.595C211.319 134.096 211.316 137.597 211.312 141.098C211.312 141.795 211.311 142.492 211.31 143.21C211.298 154.48 211.236 165.75 211.156 177.02C211.075 188.593 211.048 200.165 211.068 211.738C211.078 218.235 211.063 224.731 210.989 231.228C210.92 237.348 210.917 243.464 210.964 249.584C210.97 251.826 210.952 254.068 210.908 256.309C210.309 267.503 210.309 267.503 214.039 277.698C217.756 281.543 222.03 284.105 226.654 286.727C228.109 287.832 229.547 288.959 230.943 290.137C231.796 290.814 231.796 290.814 232.666 291.506C233.783 292.394 234.897 293.285 236.01 294.178C238.791 296.382 241.454 298.207 244.654 299.727C246.593 297.353 248.531 294.978 250.467 292.602C251.058 291.875 251.65 291.149 252.26 290.401C255.496 286.417 258.697 282.412 261.842 278.356C267.641 270.879 273.758 263.726 280.001 256.618C281.638 254.745 283.26 252.862 284.877 250.973C291.957 242.713 299.258 234.703 306.728 226.796C308.09 225.333 309.436 223.855 310.77 222.366C319.634 212.513 329.036 203.192 338.416 193.834C340.864 191.393 343.306 188.947 345.748 186.499C348.114 184.129 350.484 181.762 352.854 179.395C353.718 178.528 354.583 177.661 355.474 176.768C359.865 172.393 364.318 168.161 369.029 164.132C371.006 162.423 372.84 160.606 374.654 158.727C377.823 155.515 381.104 152.513 384.525 149.574C386.918 147.498 389.253 145.363 391.592 143.227C394.849 140.31 398.109 137.402 401.467 134.602C402.154 134.021 402.841 133.441 403.549 132.844C405.654 131.727 405.654 131.727 407.99 131.762C411.55 133.051 414.432 135.079 417.467 137.289C418.064 137.714 418.662 138.139 419.277 138.576C420.742 139.619 422.199 140.672 423.654 141.727C422.354 144.623 421.019 146.579 418.678 148.715C418.094 149.253 417.51 149.79 416.908 150.344C415.978 151.183 415.978 151.183 415.029 152.039C414.393 152.622 413.756 153.204 413.1 153.804C409.336 157.238 405.531 160.62 401.678 163.953C396.922 168.121 392.298 172.436 387.654 176.727C387.098 177.239 386.542 177.752 385.969 178.28C374.822 188.571 364.029 199.196 353.315 209.936C350.568 212.688 347.815 215.435 345.062 218.182C343.289 219.955 341.517 221.729 339.744 223.504C338.934 224.312 338.123 225.121 337.288 225.954C333.075 230.184 329.024 234.495 325.128 239.019C323.437 240.979 321.684 242.866 319.893 244.734C319.255 245.404 318.617 246.073 317.96 246.762C317.302 247.452 316.644 248.141 315.967 248.852C309.453 255.727 303.198 262.764 297.103 270.012C295.088 272.396 293.049 274.759 291.01 277.123C285.452 283.573 280.018 290.114 274.654 296.727C273.051 298.685 271.447 300.644 269.842 302.602C268.444 304.308 267.048 306.016 265.654 307.727C264.535 309.03 264.535 309.03 263.393 310.359C261.358 312.64 261.358 312.64 261.654 315.727C262.939 317.229 262.939 317.229 264.779 318.664C265.876 319.584 265.876 319.584 266.994 320.523C267.872 321.25 268.75 321.978 269.654 322.727C271.891 324.614 274.117 326.513 276.342 328.414C276.94 328.924 277.537 329.434 278.153 329.959C282.931 334.057 287.573 338.285 292.178 342.575C295.588 345.75 299.049 348.846 302.572 351.895C305.79 354.726 308.937 357.635 312.09 360.539C315.271 363.468 318.482 366.357 321.717 369.227C325.358 372.488 328.845 375.875 332.279 379.352C337.767 384.894 343.377 390.091 349.654 394.727C350.139 394.23 350.624 393.734 351.123 393.223C354.535 389.764 357.968 386.393 361.654 383.227C364.443 380.83 367.074 378.347 369.654 375.727C372.101 373.247 374.575 370.872 377.217 368.602C381.258 365.126 385.142 361.497 389.029 357.852C394.088 353.111 399.175 348.408 404.346 343.789C405.901 342.4 407.45 341.004 408.994 339.602C413.964 335.09 419.003 330.665 424.092 326.289C424.695 325.769 425.299 325.248 425.921 324.712C428.431 322.562 430.901 320.562 433.654 318.727C433.888 322.413 434.029 326.097 434.154 329.789C434.221 330.827 434.288 331.866 434.357 332.936C434.551 340.569 434.551 340.569 431.961 343.912C429.936 345.672 427.85 347.188 425.654 348.727C424.463 349.868 423.295 351.035 422.154 352.227C419.821 354.599 417.43 356.833 414.908 359.004C410.879 362.507 406.973 366.123 403.092 369.789C401.69 371.11 400.287 372.43 398.885 373.75C398.181 374.412 397.478 375.075 396.753 375.757C394.744 377.642 392.727 379.518 390.705 381.391C383.73 387.854 376.89 394.404 370.24 401.203C367.822 403.563 365.331 405.668 362.654 407.727C363.23 411.079 364.247 412.665 366.717 414.977C367.265 415.497 367.812 416.018 368.377 416.555C368.798 416.941 369.22 417.328 369.654 417.727C368.165 421.739 365.966 423.075 362.279 425.102C361.323 425.646 360.366 426.19 359.381 426.75C356.654 427.727 356.654 427.727 354.874 427.167C351.651 425.075 349.09 422.386 346.42 419.652C345.823 419.05 345.226 418.448 344.611 417.828C342.704 415.903 340.804 413.972 338.904 412.039C336.413 409.511 333.918 406.986 331.42 404.465C330.822 403.861 330.223 403.257 329.607 402.635C325.947 398.962 322.205 395.448 318.247 392.094C315.921 390.096 313.793 387.923 311.654 385.727C308.143 382.177 304.564 378.807 300.771 375.562C298.248 373.375 295.799 371.114 293.342 368.852C288.803 364.707 284.12 360.801 279.338 356.941C276.707 354.77 274.175 352.524 271.654 350.227C266.485 345.518 261.088 341.123 255.654 336.727C253.648 335.068 251.65 333.399 249.654 331.727C246.364 333.118 244.706 334.597 242.623 337.48C241.788 338.625 241.788 338.625 240.936 339.792C240.054 341.028 240.054 341.028 239.154 342.289C238.225 343.573 238.225 343.573 237.277 344.884C235.395 347.492 233.524 350.109 231.654 352.727C230.635 354.137 229.616 355.547 228.596 356.957C203.982 391.186 182.957 427.831 162.654 464.727C158.71 464.138 155.831 462.94 152.404 460.914C151.533 460.413 150.661 459.911 149.764 459.395C147.654 457.727 147.654 457.727 146.845 455.998C146.561 452.619 147.896 450.687 149.494 447.723C149.807 447.136 150.12 446.549 150.443 445.944C151.48 444.01 152.535 442.087 153.592 440.164C154.323 438.815 155.054 437.465 155.784 436.116C162.486 423.797 169.591 411.732 176.844 399.73C178.497 396.987 180.135 394.235 181.764 391.477C195.604 368.091 210.492 345.436 226.505 323.487C227.031 322.764 227.557 322.041 228.1 321.297C228.569 320.655 229.038 320.013 229.522 319.352C230.72 317.716 230.72 317.716 231.654 315.727C231.071 315.455 230.488 315.184 229.887 314.904C227.673 313.736 225.876 312.452 223.924 310.891C223.201 310.32 222.479 309.749 221.734 309.16C220.273 307.994 218.812 306.828 217.352 305.66C216.612 305.076 215.873 304.492 215.111 303.891C214.345 303.271 213.578 302.652 212.788 302.014C210.358 300.24 208.084 298.816 205.469 297.374C194.098 290.816 194.098 290.816 191.684 285.649C190.223 279.974 190.548 274.206 190.775 268.398C190.781 266.763 190.778 265.127 190.768 263.491C190.783 257.485 190.946 251.48 191.092 245.477C191.277 232.029 191.463 218.582 191.654 204.727C157.334 204.397 123.014 204.067 87.6543 203.727C87.6543 237.717 87.6543 271.707 87.6543 306.727C118.674 306.727 149.694 306.727 181.654 306.727C181.654 312.337 181.654 317.947 181.654 323.727C135.124 324.222 135.124 324.222 87.6543 324.727C87.6543 356.077 87.6543 387.427 87.6543 419.727C85.6743 419.067 83.6943 418.407 81.6543 417.727C80.0853 417.211 80.0853 417.211 78.4846 416.685C74.8045 415.081 72.4236 413.658 69.6543 410.727C67.4562 404.599 68.2635 397.622 68.4824 391.23C68.5048 389.312 68.5219 387.394 68.5339 385.476C68.5796 380.442 68.6973 375.412 68.8303 370.38C68.975 364.334 69.0298 358.287 69.0998 352.24C69.2159 343.066 69.4458 333.901 69.6543 324.727C54.8043 324.727 39.9543 324.727 24.6543 324.727C24.6543 318.787 24.6543 312.847 24.6543 306.727C39.5043 306.727 54.3543 306.727 69.6543 306.727C69.6543 272.737 69.6543 238.747 69.6543 203.727C55.1343 203.727 40.6143 203.727 25.6543 203.727C25.6543 198.117 25.6543 192.507 25.6543 186.727C80.7643 186.727 135.874 186.727 192.654 186.727C192.298 142.897 192.298 142.897 191.844 99.0679C191.803 90.5891 191.803 90.5891 191.795 86.6193C191.781 83.8464 191.753 81.0772 191.704 78.3051C191.642 74.7669 191.624 71.231 191.637 67.6923C191.633 65.7845 191.584 63.8769 191.534 61.9698C191.624 53.8189 191.624 53.8189 194.571 50.6957C196.871 49.1418 199.155 47.9276 201.654 46.7266C203.145 45.7868 204.627 44.8311 206.092 43.8516C209.4 41.7266 209.4 41.7266 211.654 41.7266Z" fill="#030303"/>
<path d="M233.654 185.727C243.224 185.727 252.794 185.727 262.654 185.727C262.654 207.177 262.654 228.627 262.654 250.727C253.084 250.727 243.514 250.727 233.654 250.727C233.654 229.277 233.654 207.827 233.654 185.727Z" fill="#050505"/>
<path d="M290.654 80.7266C299.234 80.7266 307.814 80.7266 316.654 80.7266C316.654 103.497 316.654 126.267 316.654 149.727C308.074 149.727 299.494 149.727 290.654 149.727C290.654 126.957 290.654 104.187 290.654 80.7266Z" fill="#050505"/>
<path d="M92.6543 113.727C102.884 113.727 113.114 113.727 123.654 113.727C123.654 130.887 123.654 148.047 123.654 165.727C113.424 165.727 103.194 165.727 92.6543 165.727C92.6543 148.567 92.6543 131.407 92.6543 113.727Z" fill="#050505"/>
<path d="M233.654 117.727C243.224 117.727 252.794 117.727 262.654 117.727C263.295 133.419 263.772 149.024 263.654 164.727C253.754 164.727 243.854 164.727 233.654 164.727C233.654 149.217 233.654 133.707 233.654 117.727Z" fill="black"/>
<path d="M147.654 226.727C155.574 226.727 163.494 226.727 171.654 226.727C171.654 244.877 171.654 263.027 171.654 281.727C163.734 281.727 155.814 281.727 147.654 281.727C147.654 263.577 147.654 245.427 147.654 226.727Z" fill="#090909"/>
<path d="M326.654 278.727C329.648 280.088 331.903 281.653 334.342 283.852C335.369 284.77 335.369 284.77 336.416 285.707C337.155 286.373 337.893 287.04 338.654 287.727C340.32 289.207 341.987 290.686 343.654 292.164C344.988 293.351 346.321 294.539 347.654 295.727C346.008 299.96 342.86 302.791 339.693 305.918C338.813 306.798 338.813 306.798 337.915 307.695C336.675 308.932 335.432 310.167 334.188 311.399C332.288 313.281 330.396 315.17 328.506 317.061C327.298 318.263 326.09 319.466 324.881 320.668C324.317 321.231 323.754 321.793 323.173 322.373C317.191 328.283 317.191 328.283 314.654 329.727C309.956 329.378 306.869 325.864 303.467 322.914C302.825 322.38 302.184 321.845 301.523 321.295C300.608 320.509 300.608 320.509 299.674 319.707C299.118 319.232 298.562 318.756 297.99 318.266C296.357 316.384 295.828 315.216 295.654 312.727C296.715 311.022 296.715 311.022 298.373 309.336C298.972 308.713 299.571 308.09 300.188 307.448C300.837 306.798 301.486 306.147 302.154 305.477C303.462 304.123 304.77 302.769 306.076 301.414C306.703 300.771 307.33 300.128 307.977 299.465C309.852 297.522 311.646 295.525 313.404 293.477C317.716 288.466 322.196 283.607 326.654 278.727Z" fill="#040404"/>
<path d="M109.655 344.727C113.3 344.698 116.946 344.68 120.592 344.664C122.153 344.652 122.153 344.652 123.746 344.639C124.736 344.636 125.725 344.632 126.744 344.629C128.119 344.621 128.119 344.621 129.521 344.613C131.655 344.727 131.655 344.727 132.655 345.727C132.814 347.805 132.906 349.889 132.971 351.973C133.013 353.278 133.055 354.583 133.098 355.928C133.138 357.34 133.178 358.752 133.217 360.164C133.26 361.584 133.303 363.003 133.346 364.422C133.641 374.528 133.744 384.617 133.655 394.727C125.405 394.727 117.155 394.727 108.655 394.727C108.631 389.374 108.612 384.021 108.6 378.668C108.595 376.852 108.588 375.036 108.579 373.219C108.489 353.861 108.489 353.861 109.655 344.727Z" fill="#080808"/>
<path d="M233.654 55.7266C243.554 55.7266 253.454 55.7266 263.654 55.7266C263.654 68.9266 263.654 82.1266 263.654 95.7266C254.084 95.7266 244.514 95.7266 234.654 95.7266C233.015 92.4476 233.534 88.8204 233.557 85.2188C233.558 84.3781 233.559 83.5375 233.561 82.6714C233.566 79.9814 233.579 77.2915 233.592 74.6016C233.597 72.7799 233.601 70.9583 233.605 69.1367C233.616 64.6666 233.635 60.1967 233.654 55.7266Z" fill="#080808"/>
<path d="M366.654 235.727C372.466 238.918 376.833 243.497 381.486 248.133C383.034 249.668 384.599 251.185 386.166 252.701C387.15 253.676 388.133 254.652 389.115 255.629C390.01 256.511 390.905 257.392 391.828 258.301C393.654 260.727 393.654 260.727 393.583 262.884C392.105 265.816 389.765 267.879 387.404 270.102C383.572 273.81 379.946 277.526 376.654 281.727C373.168 280.242 371.012 278.264 368.404 275.539C365.555 272.62 362.691 269.817 359.592 267.164C355.393 263.565 351.516 259.681 347.654 255.727C350.767 248.791 357.294 244.067 362.955 239.207C364.232 238.095 365.457 236.924 366.654 235.727Z" fill="#050505"/>
<path d="M144.654 80.7266C153.564 80.7266 162.474 80.7266 171.654 80.7266C171.654 92.2766 171.654 103.827 171.654 115.727C162.744 115.727 153.834 115.727 144.654 115.727C144.654 104.177 144.654 92.6266 144.654 80.7266Z" fill="#020202"/>
<path d="M410.59 194.873C413.173 195.941 414.593 197.325 416.545 199.324C417.254 200.043 417.963 200.761 418.693 201.502C419.423 202.256 420.153 203.011 420.904 203.789C422.022 204.927 422.022 204.927 423.162 206.088C425 207.961 426.83 209.84 428.654 211.726C424.433 220.447 416.48 227.024 409.654 233.726C405.669 232.092 402.809 229.321 399.717 226.414C399.204 225.94 398.692 225.466 398.164 224.978C394.92 221.965 391.768 218.874 388.654 215.726C390.281 211.59 393.288 208.833 396.404 205.789C396.917 205.276 397.43 204.764 397.959 204.236C399.503 202.709 401.072 201.213 402.654 199.726C403.178 199.222 403.702 198.718 404.242 198.198C408.102 194.684 408.102 194.684 410.59 194.873Z" fill="#060606"/>
<path d="M294.654 403.727C298.578 405.343 301.368 408.04 304.404 410.914C305.466 411.904 306.529 412.894 307.592 413.883C308.369 414.608 308.369 414.608 309.162 415.348C312.262 418.213 315.457 420.971 318.654 423.727C318.11 427.78 316.028 429.809 313.279 432.727C310.561 435.631 307.975 438.492 305.654 441.727C302.207 441.139 300.506 439.973 298.01 437.559C297.332 436.912 296.655 436.266 295.957 435.6C294.91 434.58 294.91 434.58 293.842 433.539C292.462 432.211 291.08 430.884 289.697 429.559C289.027 428.916 288.358 428.274 287.667 427.612C284.748 424.878 281.716 422.3 278.654 419.727C280.379 415.997 282.424 413.887 285.529 411.164C286.393 410.4 287.257 409.635 288.146 408.848C290.266 407.055 292.411 405.36 294.654 403.727Z" fill="#060606"/>
<path d="M146.654 137.727C154.574 137.727 162.494 137.727 170.654 137.727C170.654 146.637 170.654 155.547 170.654 164.727C167.772 165.687 165.978 165.843 162.986 165.824C162.094 165.821 161.201 165.818 160.281 165.814C158.888 165.802 158.888 165.802 157.467 165.789C156.526 165.785 155.586 165.78 154.617 165.775C152.296 165.764 149.975 165.747 147.654 165.727C146.835 162.153 146.536 158.87 146.557 155.207C146.559 154.286 146.562 153.364 146.564 152.415C146.573 151.26 146.582 150.104 146.592 148.914C146.612 145.222 146.633 141.53 146.654 137.727Z" fill="#090909"/>
<path d="M254.654 367.727C259.1 369.16 261.782 371.409 265.154 374.602C268.555 377.801 271.97 380.856 275.654 383.727C275.063 387.226 273.794 389.014 271.404 391.602C270.779 392.29 270.154 392.978 269.51 393.688C268.897 394.36 268.285 395.033 267.654 395.727C265.967 397.711 264.312 399.718 262.654 401.727C257.877 400.215 254.728 397.528 251.029 394.289C250.457 393.799 249.885 393.308 249.295 392.803C246.657 390.53 244.061 388.244 241.654 385.727C242.945 382.977 244.365 380.648 246.256 378.273C246.991 377.345 246.991 377.345 247.74 376.398C248.248 375.764 248.756 375.13 249.279 374.477C249.795 373.827 250.311 373.177 250.842 372.508C252.109 370.912 253.381 369.319 254.654 367.727Z" fill="#050505"/>
<path d="M290.654 171.727C298.574 172.057 306.494 172.387 314.654 172.727C314.654 180.977 314.654 189.227 314.654 197.727C306.734 197.727 298.814 197.727 290.654 197.727C290.654 189.147 290.654 180.567 290.654 171.727Z" fill="#060606"/>
<path d="M201.654 454.727C208.584 454.727 215.514 454.727 222.654 454.727C222.654 463.637 222.654 472.547 222.654 481.727C219.889 482.648 218.271 482.844 215.424 482.824C214.7 482.822 213.977 482.819 213.232 482.817C212.319 482.808 211.407 482.798 210.467 482.789C207.559 482.768 204.651 482.748 201.654 482.727C201.654 473.487 201.654 464.247 201.654 454.727Z" fill="#070707"/>
<path d="M226.654 408.727C229.294 409.999 231.751 411.375 234.186 413.004C235.154 413.651 235.154 413.651 236.143 414.311C237.138 414.981 237.138 414.981 238.154 415.664C239.15 416.328 239.15 416.328 240.166 417.006C243.394 419.167 246.579 421.35 249.654 423.727C249.159 428.067 246.343 430.813 243.592 433.977C243.119 434.531 242.647 435.085 242.16 435.656C240.998 437.018 239.827 438.373 238.654 439.727C235.652 439.111 233.45 438.154 230.869 436.512C229.826 435.853 229.826 435.853 228.762 435.182C228.046 434.722 227.33 434.263 226.592 433.789C225.872 433.333 225.152 432.878 224.41 432.408C221.47 430.544 218.551 428.658 215.654 426.727C216.253 423.737 217.143 421.729 218.939 419.273C219.387 418.655 219.835 418.036 220.297 417.398C220.765 416.764 221.234 416.13 221.717 415.477C222.189 414.827 222.662 414.177 223.148 413.508C224.312 411.91 225.482 410.318 226.654 408.727Z" fill="#060606"/>
<path d="M339.654 124.727C347.244 124.727 354.834 124.727 362.654 124.727C362.654 132.977 362.654 141.227 362.654 149.727C355.064 149.727 347.474 149.727 339.654 149.727C339.654 141.477 339.654 133.227 339.654 124.727Z" fill="#090909"/>
<path d="M29.6543 347.727C35.9243 347.727 42.1943 347.727 48.6543 347.727C48.6543 357.297 48.6543 366.867 48.6543 376.727C42.3843 376.727 36.1143 376.727 29.6543 376.727C29.6543 367.157 29.6543 357.587 29.6543 347.727Z" fill="black"/>
<path d="M413.654 277.727C417.944 278.205 419.897 280.698 422.779 283.727C425.888 287.167 425.888 287.167 429.654 289.727C427.487 294.57 423.973 297.814 420.279 301.539C419.606 302.245 418.934 302.951 418.24 303.678C417.585 304.34 416.931 305.002 416.256 305.684C415.661 306.292 415.066 306.9 414.454 307.527C412.654 308.727 412.654 308.727 410.604 308.573C407.415 307.189 405.262 304.643 402.904 302.164C402.398 301.644 401.891 301.124 401.369 300.588C400.124 299.307 398.888 298.018 397.654 296.727C401.547 291.124 405.882 286.337 410.799 281.609C412.719 279.855 412.719 279.855 413.654 277.727Z" fill="#050505"/>
<path d="M47.604 142.613C48.4367 142.619 49.2693 142.624 50.1272 142.629C50.9368 142.632 51.7464 142.634 52.5806 142.637C53.6156 142.646 54.6506 142.655 55.717 142.664C58.9964 142.685 62.2758 142.706 65.6545 142.727C65.6545 150.317 65.6545 157.907 65.6545 165.727C58.7245 165.727 51.7945 165.727 44.6545 165.727C44.6277 162.081 44.6078 158.435 44.592 154.789C44.5837 153.748 44.5753 152.707 44.5667 151.635C44.5618 150.151 44.5618 150.151 44.5569 148.637C44.5516 147.721 44.5464 146.804 44.541 145.86C44.6882 143.095 44.8379 142.774 47.604 142.613Z" fill="#070707"/>
<path d="M29.6543 226.727C35.9243 226.727 42.1943 226.727 48.6543 226.727C48.6543 234.317 48.6543 241.907 48.6543 249.727C42.3843 249.727 36.1143 249.727 29.6543 249.727C29.6543 242.137 29.6543 234.547 29.6543 226.727Z" fill="#0F0F0F"/>
<path d="M372.654 318.727C376.335 320.263 378.642 322.508 381.404 325.352C382.204 326.169 383.003 326.986 383.826 327.828C384.429 328.455 385.033 329.081 385.654 329.727C381.749 335.234 377.557 340.085 372.654 344.727C364.288 337.676 364.288 337.676 361.654 334.727C361.654 334.067 361.654 333.407 361.654 332.727C360.994 332.727 360.334 332.727 359.654 332.727C361.199 328.868 363.612 326.741 366.717 324.039C367.615 323.251 368.514 322.464 369.439 321.652C370.17 321.017 370.901 320.381 371.654 319.727C371.984 319.397 372.314 319.067 372.654 318.727Z" fill="#080808"/>
<path d="M108.654 225.727C114.264 225.727 119.874 225.727 125.654 225.727C125.654 231.997 125.654 238.267 125.654 244.727C120.044 244.727 114.434 244.727 108.654 244.727C108.654 238.457 108.654 232.187 108.654 225.727Z" fill="#020202"/>
<path d="M30.6543 267.727C33.4669 267.7 36.2792 267.68 39.0918 267.664C39.8942 267.656 40.6967 267.647 41.5234 267.639C43.5672 267.63 45.6111 267.674 47.6543 267.727C48.6543 268.727 48.6543 268.727 48.752 272.543C48.7453 274.125 48.7333 275.707 48.7168 277.289C48.7123 278.095 48.7078 278.902 48.7031 279.733C48.6913 281.731 48.6734 283.729 48.6543 285.727C45.8417 285.754 43.0294 285.773 40.2168 285.789C39.4144 285.798 38.6119 285.806 37.7852 285.815C35.7413 285.823 33.6975 285.779 31.6543 285.727C30.6543 284.727 30.6543 284.727 30.5566 280.91C30.5633 279.328 30.5753 277.746 30.5918 276.164C30.5963 275.358 30.6008 274.552 30.6055 273.721C30.6173 271.723 30.6352 269.725 30.6543 267.727Z" fill="#101010"/>
<path d="M108.654 268.727C114.264 268.727 119.874 268.727 125.654 268.727C125.654 274.667 125.654 280.607 125.654 286.727C120.044 286.727 114.434 286.727 108.654 286.727C108.654 280.787 108.654 274.847 108.654 268.727Z" fill="#030303"/>
<path d="M165.529 348.665C166.496 348.674 167.463 348.683 168.459 348.692C169.183 348.704 169.908 348.715 170.654 348.727C170.681 351.54 170.701 354.352 170.717 357.165C170.725 357.967 170.734 358.769 170.742 359.596C170.751 361.64 170.707 363.684 170.654 365.727C169.654 366.727 169.654 366.727 166.057 366.825C164.568 366.819 163.08 366.806 161.592 366.79C158.972 366.769 156.353 366.748 153.654 366.727C153.654 361.117 153.654 355.507 153.654 349.727C157.919 349.016 161.306 348.613 165.529 348.665Z" fill="#080808"/>
<path d="M347.654 343.727C351.365 345.304 353.953 347.634 356.904 350.352C357.796 351.169 358.688 351.986 359.607 352.828C360.621 353.768 360.621 353.768 361.654 354.727C360.264 357.831 358.639 360.092 356.279 362.539C355.694 363.164 355.109 363.789 354.506 364.434C352.654 365.727 352.654 365.727 350.756 365.711C347.812 364.332 345.774 362.378 343.404 360.164C342.512 359.338 341.62 358.511 340.701 357.66C340.026 357.022 339.35 356.384 338.654 355.727C339.204 351.851 340.93 350.131 343.717 347.477C344.45 346.77 345.184 346.064 345.939 345.336C346.505 344.805 347.071 344.274 347.654 343.727Z" fill="#0A0A0A"/>
<path d="M250.654 458.727C256.264 458.727 261.874 458.727 267.654 458.727C268.149 467.142 268.149 467.142 268.654 475.727C263.374 475.397 258.094 475.067 252.654 474.727C250.595 468.549 250.483 465.068 250.654 458.727Z" fill="#0A0A0A"/>
<path d="M113.654 416.727C118.934 416.727 124.214 416.727 129.654 416.727C129.654 422.007 129.654 427.287 129.654 432.727C124.374 432.727 119.094 432.727 113.654 432.727C113.654 427.447 113.654 422.167 113.654 416.727Z" fill="#010101"/>
<path d="M365.654 403.727C366.314 404.057 366.974 404.387 367.654 404.727C366.943 405.345 366.943 405.345 366.217 405.977C364.492 407.909 364.088 409.208 363.654 411.727C362.994 411.397 362.334 411.067 361.654 410.727C362.218 407.457 363.154 405.901 365.654 403.727Z" fill="#D8D8D8"/>
</svg>
